<?xml version="1.0" encoding="UTF-8"?>
<!DOCTYPE svg PUBLIC "-//W3C//DTD SVG 1.1//EN" "http://www.w3.org/Graphics/SVG/1.1/DTD/svg11.dtd">
<svg xmlns="http://www.w3.org/2000/svg" version="1.1" width="292px" height="189px" style="shape-rendering:geometricPrecision; text-rendering:geometricPrecision; image-rendering:optimizeQuality; fill-rule:evenodd; clip-rule:evenodd" xmlns:xlink="http://www.w3.org/1999/xlink">
<g><path style="opacity:0.25" fill="#c1c3c2" d="M 198.5,5.5 C 198.167,5.5 197.833,5.5 197.5,5.5C 193.958,5.18723 190.625,5.52056 187.5,6.5C 186.957,6.44001 186.624,6.10667 186.5,5.5C 190.649,4.19051 194.649,4.19051 198.5,5.5 Z"/></g>
<g><path style="opacity:1" fill="#2d2e2e" d="M 197.5,5.5 C 197.665,8.51838 197.498,11.5184 197,14.5C 196.329,13.7476 195.496,13.4142 194.5,13.5C 193.761,13.369 193.094,13.5357 192.5,14C 177.632,29.0352 162.632,43.8685 147.5,58.5C 142.833,54.8333 138.167,51.1667 133.5,47.5C 131.167,45.8333 129.167,43.8333 127.5,41.5C 127.103,40.475 126.437,40.3083 125.5,41C 119.297,47.0352 113.297,53.2019 107.5,59.5C 104.037,63.4643 100.37,67.2977 96.5,71C 95.5632,71.6917 94.8966,71.525 94.5,70.5C 94.3893,69.8826 94.056,69.3826 93.5,69C 104.167,58.3333 114.833,47.6667 125.5,37C 126.167,36.3333 126.833,36.3333 127.5,37C 130.432,40.442 133.765,43.2754 137.5,45.5C 140.5,47.8333 143.167,50.5 145.5,53.5C 145.897,54.525 146.563,54.6917 147.5,54C 162.035,39.6319 176.369,25.1319 190.5,10.5C 189.5,9.16667 188.5,7.83333 187.5,6.5C 190.625,5.52056 193.958,5.18723 197.5,5.5 Z"/></g>
<g><path style="opacity:0.541" fill="#808181" d="M 197.5,5.5 C 197.833,5.5 198.167,5.5 198.5,5.5C 198.823,9.22605 198.489,12.8927 197.5,16.5C 196.145,15.8118 195.145,14.8118 194.5,13.5C 195.496,13.4142 196.329,13.7476 197,14.5C 197.498,11.5184 197.665,8.51838 197.5,5.5 Z"/></g>
<g><path style="opacity:0.682" fill="#7e7f7f" d="M 190.5,10.5 C 176.369,25.1319 162.035,39.6319 147.5,54C 146.563,54.6917 145.897,54.525 145.5,53.5C 159.965,39.5352 174.299,25.3685 188.5,11C 189.094,10.5357 189.761,10.369 190.5,10.5 Z"/></g>
<g><path style="opacity:0.392" fill="#b1b2b1" d="M 137.5,45.5 C 133.765,43.2754 130.432,40.442 127.5,37C 126.833,36.3333 126.167,36.3333 125.5,37C 114.833,47.6667 104.167,58.3333 93.5,69C 94.056,69.3826 94.3893,69.8826 94.5,70.5C 92.7748,70.1575 92.2748,69.1575 93,67.5C 104.029,56.1368 115.363,45.1368 127,34.5C 130.704,38.0357 134.204,41.7024 137.5,45.5 Z"/></g>
<g><path style="opacity:0.678" fill="#adaeae" d="M 133.5,47.5 C 138.167,51.1667 142.833,54.8333 147.5,58.5C 146.749,59.5735 145.749,59.7401 144.5,59C 140.63,55.2977 136.963,51.4643 133.5,47.5 Z"/></g>
<g><path style="opacity:0.548" fill="#979998" d="M 192.5,44.5 C 194.144,44.2865 195.644,44.6198 197,45.5C 197.667,69.1667 197.667,92.8333 197,116.5C 195.644,117.38 194.144,117.714 192.5,117.5C 192.5,93.1667 192.5,68.8333 192.5,44.5 Z"/></g>
<g><path style="opacity:1" fill="#040404" d="M 193.5,45.5 C 194.832,56.9806 195.499,68.8139 195.5,81C 195.167,92.8333 194.833,104.667 194.5,116.5C 193.5,92.8427 193.167,69.1761 193.5,45.5 Z"/></g>
<g><path style="opacity:0.004" fill="#dee0df" d="M 127.5,41.5 C 121.112,47.8923 114.445,53.8923 107.5,59.5C 113.297,53.2019 119.297,47.0352 125.5,41C 126.437,40.3083 127.103,40.475 127.5,41.5 Z"/></g>
<g><path style="opacity:1" fill="#030303" d="M 144.5,68.5 C 145.5,68.5 146.5,68.5 147.5,68.5C 147.5,84.5 147.5,100.5 147.5,116.5C 146.5,116.5 145.5,116.5 144.5,116.5C 144.5,100.5 144.5,84.5 144.5,68.5 Z"/></g>
<g><path style="opacity:0.298" fill="#b7b9b8" d="M 144.5,68.5 C 145.568,67.5655 146.901,67.2322 148.5,67.5C 148.214,82.8555 148.547,98.1889 149.5,113.5C 149.324,117.275 147.657,118.275 144.5,116.5C 145.5,116.5 146.5,116.5 147.5,116.5C 147.5,100.5 147.5,84.5 147.5,68.5C 146.5,68.5 145.5,68.5 144.5,68.5 Z"/></g>
<g><path style="opacity:0.549" fill="#979898" d="M 93.5,87.5 C 95.1667,87.5 96.8333,87.5 98.5,87.5C 98.6665,97.1724 98.4998,106.839 98,116.5C 96.6439,117.38 95.1439,117.714 93.5,117.5C 93.5,107.5 93.5,97.5 93.5,87.5 Z"/></g>
<g><path style="opacity:0.999" fill="#020202" d="M 94.5,88.5 C 95.8266,92.7825 96.4933,97.4492 96.5,102.5C 96.1667,107.167 95.8333,111.833 95.5,116.5C 94.5017,107.19 94.1684,97.8571 94.5,88.5 Z"/></g>
<g><path style="opacity:0.126" fill="#dcdedd" d="M 22.5,149.5 C 24.3635,148.207 26.3635,148.207 28.5,149.5C 28.3764,150.107 28.0431,150.44 27.5,150.5C 26.0813,149.549 24.4147,149.216 22.5,149.5 Z"/></g>
<g><path style="opacity:0.383" fill="#a6a8a7" d="M 12.5,159.5 C 10.3926,160.468 8.0593,160.802 5.5,160.5C 5.5,156.833 5.5,153.167 5.5,149.5C 4.5,149.5 3.5,149.5 2.5,149.5C 2.5,158.167 2.5,166.833 2.5,175.5C 1.5067,166.682 1.17336,157.682 1.5,148.5C 3.16667,148.5 4.83333,148.5 6.5,148.5C 6.5,152.167 6.5,155.833 6.5,159.5C 8.5,159.5 10.5,159.5 12.5,159.5 Z"/></g>
<g><path style="opacity:1" fill="#262626" d="M 12.5,159.5 C 15.5,155.833 18.8333,152.5 22.5,149.5C 24.4147,149.216 26.0813,149.549 27.5,150.5C 27.1667,151.167 26.8333,151.833 26.5,152.5C 25.8333,152.5 25.5,152.833 25.5,153.5C 22.1877,156.146 19.1877,159.146 16.5,162.5C 19.8554,166.187 23.1887,169.853 26.5,173.5C 26.8333,174.167 27.1667,174.833 27.5,175.5C 26.0536,176.613 24.3869,176.78 22.5,176C 18.9626,172.631 15.6293,169.131 12.5,165.5C 10.3926,164.532 8.0593,164.198 5.5,164.5C 5.5,168.167 5.5,171.833 5.5,175.5C 4.5,176.833 3.5,176.833 2.5,175.5C 2.5,166.833 2.5,158.167 2.5,149.5C 3.5,149.5 4.5,149.5 5.5,149.5C 5.5,153.167 5.5,156.833 5.5,160.5C 8.0593,160.802 10.3926,160.468 12.5,159.5 Z"/></g>
<g><path style="opacity:0.128" fill="#dadbda" d="M 43.5,149.5 C 43.1667,149.5 42.8333,149.5 42.5,149.5C 41.5,149.5 40.5,149.5 39.5,149.5C 39.5,158.167 39.5,166.833 39.5,175.5C 38.5067,166.682 38.1734,157.682 38.5,148.5C 40.4147,148.216 42.0813,148.549 43.5,149.5 Z"/></g>
<g><path style="opacity:1" fill="#212121" d="M 42.5,149.5 C 42.3337,156.841 42.5003,164.174 43,171.5C 50.4129,172.481 57.9129,172.814 65.5,172.5C 65.5,173.5 65.5,174.5 65.5,175.5C 56.8333,176.833 48.1667,176.833 39.5,175.5C 39.5,166.833 39.5,158.167 39.5,149.5C 40.5,149.5 41.5,149.5 42.5,149.5 Z"/></g>
<g><path style="opacity:1" fill="#2a2a2a" d="M 87.5,171.5 C 90.5,171.833 91.8333,170.5 91.5,167.5C 90.2954,161.239 90.2954,155.239 91.5,149.5C 92.5,149.5 93.5,149.5 94.5,149.5C 94.3338,155.842 94.5005,162.175 95,168.5C 95.2784,169.416 95.7784,170.082 96.5,170.5C 98.7638,171.219 101.097,171.552 103.5,171.5C 105.912,171.306 106.912,169.973 106.5,167.5C 105.894,161.287 105.894,155.287 106.5,149.5C 107.5,149.5 108.5,149.5 109.5,149.5C 109.5,156.833 109.5,164.167 109.5,171.5C 109.586,172.496 109.252,173.329 108.5,174C 103.584,177.074 98.584,177.241 93.5,174.5C 88.9973,177.022 84.664,177.022 80.5,174.5C 80.0269,173.094 79.0269,172.427 77.5,172.5C 76.5328,164.586 76.1995,156.586 76.5,148.5C 77.8333,148.5 79.1667,148.5 80.5,148.5C 80.1511,155.938 80.8178,163.272 82.5,170.5C 84.0709,171.309 85.7376,171.643 87.5,171.5 Z"/></g>
<g><path style="opacity:0.773" fill="#848584" d="M 91.5,149.5 C 93.515,148.147 95.1817,148.647 96.5,151C 96.421,157.289 96.421,163.789 96.5,170.5C 95.7784,170.082 95.2784,169.416 95,168.5C 94.5005,162.175 94.3338,155.842 94.5,149.5C 93.5,149.5 92.5,149.5 91.5,149.5 Z"/></g>
<g><path style="opacity:0.702" fill="#676767" d="M 106.5,149.5 C 107.568,148.566 108.901,148.232 110.5,148.5C 110.825,156.352 110.492,164.018 109.5,171.5C 109.5,164.167 109.5,156.833 109.5,149.5C 108.5,149.5 107.5,149.5 106.5,149.5 Z"/></g>
<g><path style="opacity:1" fill="#343535" d="M 171.5,151.5 C 173.046,153.882 173.713,156.549 173.5,159.5C 172.64,162.36 172.974,165.194 174.5,168C 174.205,170.923 172.871,173.257 170.5,175C 162.917,176.765 155.251,176.931 147.5,175.5C 147.291,174.914 146.957,174.414 146.5,174C 146.908,165.527 147.242,157.193 147.5,149C 154.5,148.333 161.5,148.333 168.5,149C 169.942,149.377 170.942,150.21 171.5,151.5 Z M 168.5,154.5 C 169.728,156.01 169.728,157.51 168.5,159C 162.799,160.297 157.133,160.131 151.5,158.5C 152.451,157.081 152.784,155.415 152.5,153.5C 157.895,153.267 163.228,153.6 168.5,154.5 Z M 152.5,164.5 C 157.766,164.201 163.099,164.701 168.5,166C 169.337,167.011 169.67,168.178 169.5,169.5C 168.29,169.932 167.29,170.599 166.5,171.5C 161.833,171.5 157.167,171.5 152.5,171.5C 152.5,169.167 152.5,166.833 152.5,164.5 Z"/></g>
<g><path style="opacity:1" fill="#2d2e2d" d="M 209.5,150.5 C 209.738,152.404 210.738,153.738 212.5,154.5C 213.655,161.321 213.821,168.321 213,175.5C 211.644,176.38 210.144,176.714 208.5,176.5C 208.5,173.833 208.5,171.167 208.5,168.5C 202.681,167.347 196.681,167.181 190.5,168C 189.565,170.381 189.232,172.881 189.5,175.5C 188.5,175.5 187.5,175.5 186.5,175.5C 185.19,168.599 185.19,161.599 186.5,154.5C 187.906,154.027 188.573,153.027 188.5,151.5C 189.058,150.21 190.058,149.377 191.5,149C 196.833,148.333 202.167,148.333 207.5,149C 208.416,149.278 209.082,149.778 209.5,150.5 Z M 207.5,154.5 C 208.299,157.43 208.632,160.43 208.5,163.5C 202.5,163.5 196.5,163.5 190.5,163.5C 190.368,160.43 190.701,157.43 191.5,154.5C 196.811,153.296 202.144,153.296 207.5,154.5 Z"/></g>
<g><path style="opacity:0.128" fill="#dadbda" d="M 229.5,149.5 C 228.167,149.5 226.833,149.5 225.5,149.5C 225.5,158.167 225.5,166.833 225.5,175.5C 224.507,166.682 224.173,157.682 224.5,148.5C 226.415,148.216 228.081,148.549 229.5,149.5 Z"/></g>
<g><path style="opacity:1" fill="#242424" d="M 229.5,149.5 C 231.833,151.167 233.833,153.167 235.5,155.5C 237.766,159.436 240.766,162.769 244.5,165.5C 245.5,165.833 246.167,166.5 246.5,167.5C 246.56,168.043 246.893,168.376 247.5,168.5C 248.496,162.202 248.83,155.868 248.5,149.5C 249.5,149.5 250.5,149.5 251.5,149.5C 252.657,157.99 252.824,166.657 252,175.5C 250.612,176.554 249.112,176.72 247.5,176C 244.961,173.63 242.628,171.13 240.5,168.5C 239.581,165.911 237.914,163.911 235.5,162.5C 233.833,161.5 232.5,160.167 231.5,158.5C 231.092,157.357 230.425,156.357 229.5,155.5C 228.503,162.134 228.17,168.8 228.5,175.5C 227.5,176.833 226.5,176.833 225.5,175.5C 225.5,166.833 225.5,158.167 225.5,149.5C 226.833,149.5 228.167,149.5 229.5,149.5 Z"/></g>
<g><path style="opacity:0.724" fill="#606060" d="M 251.5,149.5 C 250.5,149.5 249.5,149.5 248.5,149.5C 248.83,155.868 248.496,162.202 247.5,168.5C 246.893,168.376 246.56,168.043 246.5,167.5C 247.49,161.355 247.823,155.022 247.5,148.5C 249.099,148.232 250.432,148.566 251.5,149.5 Z"/></g>
<g><path style="opacity:1" fill="#343535" d="M 268.5,159.5 C 270.628,160.629 272.961,160.796 275.5,160C 279.037,156.631 282.371,153.131 285.5,149.5C 287.415,149.216 289.081,149.549 290.5,150.5C 290.5,150.833 290.5,151.167 290.5,151.5C 289.833,151.5 289.5,151.833 289.5,152.5C 285.854,155.479 282.521,158.812 279.5,162.5C 282.855,166.187 286.189,169.853 289.5,173.5C 288.817,175.176 287.483,175.843 285.5,175.5C 282.437,171.434 278.771,168.101 274.5,165.5C 272.856,165.714 271.356,165.38 270,164.5C 269.509,168.611 269.009,172.444 268.5,176C 267.207,176.49 265.873,176.657 264.5,176.5C 264.5,167.167 264.5,157.833 264.5,148.5C 266.665,148.116 268.332,148.783 269.5,150.5C 269.674,153.424 269.341,156.424 268.5,159.5 Z"/></g>
<g><path style="opacity:0.008" fill="#f0f2f1" d="M 291.5,147.5 C 291.5,148.5 291.5,149.5 291.5,150.5C 291.167,150.5 290.833,150.5 290.5,150.5C 289.081,149.549 287.415,149.216 285.5,149.5C 285.167,149.5 284.833,149.5 284.5,149.5C 286.518,148.953 288.351,147.953 290,146.5C 290.383,147.056 290.883,147.389 291.5,147.5 Z"/></g>
<g><path style="opacity:0.004" fill="#fafdfb" d="M -0.5,151.5 C 0.833333,155.5 0.833333,159.5 -0.5,163.5C -0.5,159.5 -0.5,155.5 -0.5,151.5 Z"/></g>
<g><path style="opacity:0.914" fill="#7f807f" d="M 209.5,150.5 C 211.262,151.262 212.262,152.596 212.5,154.5C 210.738,153.738 209.738,152.404 209.5,150.5 Z"/></g>
<g><path style="opacity:0.004" fill="#fafdfb" d="M 290.5,151.5 C 290.833,151.5 291.167,151.5 291.5,151.5C 291.5,151.833 291.5,152.167 291.5,152.5C 291.167,152.167 290.833,151.833 290.5,151.5 Z"/></g>
<g><path style="opacity:0.004" fill="#fafdfb" d="M 26.5,152.5 C 27.8333,153.167 27.8333,153.167 26.5,152.5 Z"/></g>
<g><path style="opacity:0.597" fill="#868887" d="M 168.5,154.5 C 163.228,153.6 157.895,153.267 152.5,153.5C 152.784,155.415 152.451,157.081 151.5,158.5C 151.5,156.5 151.5,154.5 151.5,152.5C 156.844,152.334 162.177,152.501 167.5,153C 168.056,153.383 168.389,153.883 168.5,154.5 Z"/></g>
<g><path style="opacity:0.598" fill="#828383" d="M 207.5,154.5 C 202.144,153.296 196.811,153.296 191.5,154.5C 191.611,153.883 191.944,153.383 192.5,153C 197.167,152.333 201.833,152.333 206.5,153C 207.056,153.383 207.389,153.883 207.5,154.5 Z"/></g>
<g><path style="opacity:0.004" fill="#fafdfb" d="M 289.5,152.5 C 289.833,152.5 290.167,152.5 290.5,152.5C 290.315,153.17 289.981,153.17 289.5,152.5 Z"/></g>
<g><path style="opacity:0.004" fill="#fafdfb" d="M 25.5,153.5 C 25.8333,153.5 26.1667,153.5 26.5,153.5C 26.3147,154.17 25.9813,154.17 25.5,153.5 Z"/></g>
<g><path style="opacity:0.518" fill="#878888" d="M 188.5,151.5 C 188.573,153.027 187.906,154.027 186.5,154.5C 186.427,152.973 187.094,151.973 188.5,151.5 Z"/></g>
<g><path style="opacity:0.627" fill="#a0a2a1" d="M 284.5,149.5 C 284.833,149.5 285.167,149.5 285.5,149.5C 282.371,153.131 279.037,156.631 275.5,160C 272.961,160.796 270.628,160.629 268.5,159.5C 270.527,159.662 272.527,159.495 274.5,159C 277.703,155.629 281.036,152.462 284.5,149.5 Z"/></g>
<g><path style="opacity:0.22" fill="#bec0bf" d="M 171.5,151.5 C 174.517,153.615 175.184,156.282 173.5,159.5C 173.713,156.549 173.046,153.882 171.5,151.5 Z"/></g>
<g><path style="opacity:0.582" fill="#858686" d="M 231.5,158.5 C 230.761,158.369 230.094,158.536 229.5,159C 229.362,163.966 229.695,168.966 230.5,174C 229.956,174.717 229.289,175.217 228.5,175.5C 228.17,168.8 228.503,162.134 229.5,155.5C 230.425,156.357 231.092,157.357 231.5,158.5 Z"/></g>
<g><path style="opacity:0.741" fill="#abadac" d="M 235.5,155.5 C 239.234,158.231 242.234,161.564 244.5,165.5C 240.766,162.769 237.766,159.436 235.5,155.5 Z"/></g>
<g><path style="opacity:0.198" fill="#afb0b0" d="M 191.5,154.5 C 190.701,157.43 190.368,160.43 190.5,163.5C 196.5,163.5 202.5,163.5 208.5,163.5C 202.355,164.49 196.022,164.823 189.5,164.5C 189.335,161.482 189.502,158.482 190,155.5C 190.383,154.944 190.883,154.611 191.5,154.5 Z"/></g>
<g><path style="opacity:0.008" fill="#c0c2c1" d="M 235.5,162.5 C 237.914,163.911 239.581,165.911 240.5,168.5C 238.086,167.089 236.419,165.089 235.5,162.5 Z"/></g>
<g><path style="opacity:0.335" fill="#babcbb" d="M 12.5,165.5 C 10.5,165.5 8.5,165.5 6.5,165.5C 6.81277,169.042 6.47944,172.375 5.5,175.5C 5.5,171.833 5.5,168.167 5.5,164.5C 8.0593,164.198 10.3926,164.532 12.5,165.5 Z"/></g>
<g><path style="opacity:0.502" fill="#b6b7b7" d="M 274.5,165.5 C 278.771,168.101 282.437,171.434 285.5,175.5C 281.229,172.899 277.563,169.566 274.5,165.5 Z"/></g>
<g><path style="opacity:0.004" fill="#fafdfb" d="M 10.5,166.5 C 11.8333,167.167 11.8333,167.167 10.5,166.5 Z"/></g>
<g><path style="opacity:0.521" fill="#888989" d="M 208.5,168.5 C 202.824,168.334 197.157,168.501 191.5,169C 190.565,171.381 190.232,173.881 190.5,176.5C 188.901,176.768 187.568,176.434 186.5,175.5C 187.5,175.5 188.5,175.5 189.5,175.5C 189.232,172.881 189.565,170.381 190.5,168C 196.681,167.181 202.681,167.347 208.5,168.5 Z"/></g>
<g><path style="opacity:0.004" fill="#fafdfb" d="M -0.5,170.5 C 0.833333,171.833 0.833333,173.167 -0.5,174.5C -0.5,173.167 -0.5,171.833 -0.5,170.5 Z"/></g>
<g><path style="opacity:0.51" fill="#babcbb" d="M 91.5,167.5 C 91.8333,170.5 90.5,171.833 87.5,171.5C 89.1667,170.5 90.5,169.167 91.5,167.5 Z"/></g>
<g><path style="opacity:0.561" fill="#abacab" d="M 106.5,167.5 C 106.912,169.973 105.912,171.306 103.5,171.5C 104.512,170.128 105.512,168.795 106.5,167.5 Z"/></g>
<g><path style="opacity:0.851" fill="#828382" d="M 169.5,169.5 C 169.179,171.048 168.179,171.715 166.5,171.5C 167.29,170.599 168.29,169.932 169.5,169.5 Z"/></g>
<g><path style="opacity:0.719" fill="#676867" d="M 42.5,149.5 C 42.8333,149.5 43.1667,149.5 43.5,149.5C 43.3337,156.508 43.5004,163.508 44,170.5C 50.8032,171.819 57.6365,171.819 64.5,170.5C 66.6071,171.913 66.9405,173.58 65.5,175.5C 65.5,174.5 65.5,173.5 65.5,172.5C 57.9129,172.814 50.4129,172.481 43,171.5C 42.5003,164.174 42.3337,156.841 42.5,149.5 Z"/></g>
<g><path style="opacity:0.719" fill="#6f6f6f" d="M 152.5,164.5 C 152.5,166.833 152.5,169.167 152.5,171.5C 157.167,171.5 161.833,171.5 166.5,171.5C 161.695,172.487 156.695,172.821 151.5,172.5C 151.194,169.615 151.527,166.948 152.5,164.5 Z"/></g>
<g><path style="opacity:0.82" fill="#7f8180" d="M 77.5,172.5 C 79.0269,172.427 80.0269,173.094 80.5,174.5C 78.9731,174.573 77.9731,173.906 77.5,172.5 Z"/></g>
<g><path style="opacity:0.008" fill="#d7d9d8" d="M 26.5,173.5 C 28.4241,173.711 28.7574,174.377 27.5,175.5C 27.1667,174.833 26.8333,174.167 26.5,173.5 Z"/></g>
<g><path style="opacity:0.012" fill="#e0e1e1" d="M 289.5,173.5 C 290.167,173.833 290.833,174.167 291.5,174.5C 291.5,174.833 291.5,175.167 291.5,175.5C 289.389,176.742 287.389,176.742 285.5,175.5C 287.483,175.843 288.817,175.176 289.5,173.5 Z"/></g>
<g><path style="opacity:0.004" fill="#fafdfb" d="M 43.5,178.5 C 43.8966,177.475 44.5632,177.308 45.5,178C 44.9056,178.464 44.2389,178.631 43.5,178.5 Z"/></g>
<g><path style="opacity:0.004" fill="#fafdfb" d="M 154.5,177.5 C 155.833,178.167 155.833,178.167 154.5,177.5 Z"/></g>
<g><path style="opacity:0.004" fill="#fafdfb" d="M 163.5,178.5 C 163.897,177.475 164.563,177.308 165.5,178C 164.906,178.464 164.239,178.631 163.5,178.5 Z"/></g>
</svg>
