<?xml version="1.0" encoding="UTF-8"?>
<!DOCTYPE svg PUBLIC "-//W3C//DTD SVG 1.1//EN" "http://www.w3.org/Graphics/SVG/1.1/DTD/svg11.dtd">
<svg xmlns="http://www.w3.org/2000/svg" version="1.1" width="125px" height="125px" style="shape-rendering:geometricPrecision; text-rendering:geometricPrecision; image-rendering:optimizeQuality; fill-rule:evenodd; clip-rule:evenodd" xmlns:xlink="http://www.w3.org/1999/xlink">
<g><path style="opacity:0.25" fill="#c1c3c2" d="M 112.5,5.5 C 112.167,5.5 111.833,5.5 111.5,5.5C 107.958,5.18723 104.625,5.52056 101.5,6.5C 100.957,6.44001 100.624,6.10667 100.5,5.5C 104.649,4.19051 108.649,4.19051 112.5,5.5 Z"/></g>
<g><path style="opacity:1" fill="#2a2a2a" d="M 101.5,6.5 C 104.625,5.52056 107.958,5.18723 111.5,5.5C 111.665,8.51838 111.498,11.5184 111,14.5C 110.329,13.7476 109.496,13.4142 108.5,13.5C 107.761,13.369 107.094,13.5357 106.5,14C 91.6319,29.0352 76.6319,43.8685 61.5,58.5C 54.8333,52.8333 48.1667,47.1667 41.5,41.5C 41.1034,40.475 40.4368,40.3083 39.5,41C 33.2972,47.0352 27.2972,53.2019 21.5,59.5C 18.0371,63.4643 14.3705,67.2977 10.5,71C 9.56323,71.6917 8.89657,71.525 8.5,70.5C 8.38929,69.8826 8.05596,69.3826 7.5,69C 18.1667,58.3333 28.8333,47.6667 39.5,37C 40.1667,36.3333 40.8333,36.3333 41.5,37C 44.7635,40.7729 48.4302,43.9396 52.5,46.5C 54.8333,48.1667 56.8333,50.1667 58.5,52.5C 58.8425,54.2252 59.8425,54.7252 61.5,54C 76.0352,39.6319 90.3685,25.1319 104.5,10.5C 105.332,8.27518 104.332,6.94185 101.5,6.5 Z"/></g>
<g><path style="opacity:0.678" fill="#868786" d="M 101.5,6.5 C 104.332,6.94185 105.332,8.27518 104.5,10.5C 103.5,9.16667 102.5,7.83333 101.5,6.5 Z"/></g>
<g><path style="opacity:0.541" fill="#808181" d="M 111.5,5.5 C 111.833,5.5 112.167,5.5 112.5,5.5C 112.823,9.22605 112.489,12.8927 111.5,16.5C 110.145,15.8118 109.145,14.8118 108.5,13.5C 109.496,13.4142 110.329,13.7476 111,14.5C 111.498,11.5184 111.665,8.51838 111.5,5.5 Z"/></g>
<g><path style="opacity:0.682" fill="#7e7f7f" d="M 104.5,10.5 C 90.3685,25.1319 76.0352,39.6319 61.5,54C 59.8425,54.7252 58.8425,54.2252 58.5,52.5C 59.1174,52.6107 59.6174,52.944 60,53.5C 74.4189,38.5784 89.2522,24.2451 104.5,10.5 Z"/></g>
<g><path style="opacity:0.392" fill="#b0b2b1" d="M 52.5,46.5 C 48.4302,43.9396 44.7635,40.7729 41.5,37C 40.8333,36.3333 40.1667,36.3333 39.5,37C 28.8333,47.6667 18.1667,58.3333 7.5,69C 8.05596,69.3826 8.38929,69.8826 8.5,70.5C 6.77484,70.1575 6.27484,69.1575 7,67.5C 18.0292,56.1368 29.3625,45.1368 41,34.5C 45.037,38.369 48.8704,42.369 52.5,46.5 Z"/></g>
<g><path style="opacity:0.686" fill="#a5a6a6" d="M 41.5,41.5 C 48.1667,47.1667 54.8333,52.8333 61.5,58.5C 60.7494,59.5735 59.7494,59.7401 58.5,59C 52.6304,53.2981 46.9638,47.4647 41.5,41.5 Z"/></g>
<g><path style="opacity:0.462" fill="#8e8f8e" d="M 110.5,45.5 C 110.167,45.5 109.833,45.5 109.5,45.5C 108.168,56.9806 107.501,68.8139 107.5,81C 107.501,93.1861 108.168,105.019 109.5,116.5C 109.833,116.5 110.167,116.5 110.5,116.5C 109.432,117.434 108.099,117.768 106.5,117.5C 106.5,93.1667 106.5,68.8333 106.5,44.5C 108.099,44.2322 109.432,44.5655 110.5,45.5 Z"/></g>
<g><path style="opacity:1" fill="#040404" d="M 109.5,45.5 C 109.5,69.1667 109.5,92.8333 109.5,116.5C 108.168,105.019 107.501,93.1861 107.5,81C 107.501,68.8139 108.168,56.9806 109.5,45.5 Z"/></g>
<g><path style="opacity:0.548" fill="#9b9d9c" d="M 109.5,45.5 C 109.833,45.5 110.167,45.5 110.5,45.5C 111.833,69.1667 111.833,92.8333 110.5,116.5C 110.167,116.5 109.833,116.5 109.5,116.5C 109.5,92.8333 109.5,69.1667 109.5,45.5 Z"/></g>
<g><path style="opacity:0.004" fill="#dee0df" d="M 41.5,41.5 C 35.1118,47.8923 28.4451,53.8923 21.5,59.5C 27.2972,53.2019 33.2972,47.0352 39.5,41C 40.4368,40.3083 41.1034,40.475 41.5,41.5 Z"/></g>
<g><path style="opacity:1" fill="#030303" d="M 58.5,68.5 C 59.5,68.5 60.5,68.5 61.5,68.5C 61.5,84.5 61.5,100.5 61.5,116.5C 60.5,116.5 59.5,116.5 58.5,116.5C 58.5,100.5 58.5,84.5 58.5,68.5 Z"/></g>
<g><path style="opacity:0.298" fill="#b7b9b8" d="M 58.5,68.5 C 59.5676,67.5655 60.901,67.2322 62.5,67.5C 62.2137,82.8555 62.547,98.1889 63.5,113.5C 63.3237,117.275 61.657,118.275 58.5,116.5C 59.5,116.5 60.5,116.5 61.5,116.5C 61.5,100.5 61.5,84.5 61.5,68.5C 60.5,68.5 59.5,68.5 58.5,68.5 Z"/></g>
<g><path style="opacity:0.549" fill="#979898" d="M 7.5,87.5 C 9.16667,87.5 10.8333,87.5 12.5,87.5C 12.6665,97.1724 12.4998,106.839 12,116.5C 10.6439,117.38 9.14387,117.714 7.5,117.5C 7.5,107.5 7.5,97.5 7.5,87.5 Z"/></g>
<g><path style="opacity:0.999" fill="#020202" d="M 8.5,88.5 C 9.8266,92.7825 10.4933,97.4492 10.5,102.5C 10.1667,107.167 9.83333,111.833 9.5,116.5C 8.50169,107.19 8.16836,97.8571 8.5,88.5 Z"/></g>
</svg>
